<svg width="22" height="18" viewBox="0 0 22 18" fill="none" xmlns="http://www.w3.org/2000/svg">
<path d="M17.9011 7C18.2962 7.68556 18.9461 8.18723 19.7094 8.3957C20.4727 8.60417 21.2874 8.50256 21.9761 8.113C22.0571 8.83665 21.9104 9.56754 21.5564 10.2039C21.2023 10.8402 20.6587 11.3502 20.0011 11.663L20.0001 18H13.0001V16C13.0003 15.4954 12.8097 15.0094 12.4666 14.6395C12.1235 14.2695 11.6533 14.0428 11.1501 14.005L11.0001 14C10.4955 13.9998 10.0095 14.1904 9.63956 14.5335C9.26957 14.8766 9.04295 15.3468 9.0051 15.85L9.0001 16V18H2.0001V11.664C1.34125 11.3517 0.796384 10.8414 0.44159 10.2044C0.0867956 9.56746 -0.0602093 8.83558 0.0211042 8.111C0.70974 8.50136 1.52478 8.60362 2.28851 8.3955C3.05224 8.18738 3.70271 7.68576 4.0981 7H17.9011ZM16.9301 9H5.0691L4.9931 9.079C4.5621 9.499 4.0581 9.839 3.5071 10.081L3.4111 10.12L4.0001 10.4L3.9991 16L7.0011 15.999V15.927L7.0111 15.704C7.1601 13.688 8.7911 12.105 10.8651 12.006L11.0731 12.001L11.2961 12.011C12.2682 12.0831 13.1806 12.5077 13.8617 13.2051C14.5428 13.9024 14.9459 14.8245 14.9951 15.798L14.9991 15.999L18.0001 16L18.0011 10.4L18.5881 10.12L18.4931 10.08C17.9416 9.83849 17.4382 9.49938 17.0071 9.079L16.9301 9ZM16.0361 0C16.1076 0.4961 16.2849 0.971049 16.5559 1.39272C16.8268 1.81438 17.1852 2.17293 17.6068 2.4441C18.0283 2.71527 18.5032 2.89273 18.9992 2.96448C19.4953 3.03624 20.001 3.00061 20.4821 2.86C20.3965 3.68858 20.0182 4.45945 19.4151 5.03408C18.8121 5.60872 18.0238 5.94943 17.1921 5.995L17.0001 6H5.0001C4.13408 6.00014 3.29875 5.6792 2.65561 5.09923C2.01247 4.51925 1.60718 3.72143 1.5181 2.86C1.99921 3.00061 2.5049 3.03624 3.00097 2.96448C3.49703 2.89273 3.9719 2.71527 4.39345 2.4441C4.81499 2.17293 5.17337 1.81438 5.44435 1.39272C5.71533 0.971049 5.89258 0.4961 5.9641 0H16.0361ZM14.6001 2H7.3991C7.03882 2.70545 6.5306 3.32487 5.9091 3.816L5.6611 4H16.3381L16.3261 3.992C15.6829 3.53728 15.1445 2.95012 14.7471 2.27L14.6001 2Z" fill="#042330"/>
</svg>
