<svg width="18" height="20" viewBox="0 0 18 20" fill="none" xmlns="http://www.w3.org/2000/svg">
<path d="M13 0V2H12V5.243C12 6.401 12.251 7.544 12.736 8.595L17.018 17.871C17.365 18.624 17.036 19.515 16.284 19.861C16.087 19.953 15.873 20 15.656 20H2.34399C1.51599 20 0.843994 19.328 0.843994 18.5C0.843994 18.283 0.890994 18.068 0.981994 17.871L5.26399 8.595C5.74899 7.545 5.99999 6.401 5.99999 5.243V2H4.99999V0H13ZM10.388 8.001H7.61199C7.50799 8.364 7.38199 8.722 7.23799 9.072L7.07999 9.433L3.12499 18H14.874L10.92 9.433C10.706 8.969 10.528 8.49 10.388 8.001ZM7.99999 5.243C7.99999 5.496 7.98999 5.749 7.97099 6.001H10.029C10.019 5.88 10.013 5.759 10.008 5.637L9.99999 5.243V2H7.99999V5.243Z" fill="#042330"/>
</svg>
