<svg width="25" height="24" viewBox="0 0 25 24" fill="none" xmlns="http://www.w3.org/2000/svg">
<path d="M12.658 22C7.135 22 2.658 17.523 2.658 12C2.658 6.477 7.135 2 12.658 2C18.181 2 22.658 6.477 22.658 12C22.658 17.523 18.181 22 12.658 22ZM12.658 20C14.7797 20 16.8146 19.1571 18.3149 17.6569C19.8152 16.1566 20.658 14.1217 20.658 12C20.658 9.87827 19.8152 7.84344 18.3149 6.34315C16.8146 4.84285 14.7797 4 12.658 4C10.5363 4 8.50144 4.84285 7.00115 6.34315C5.50086 7.84344 4.658 9.87827 4.658 12C4.658 14.1217 5.50086 16.1566 7.00115 17.6569C8.50144 19.1571 10.5363 20 12.658 20Z" fill="#03314B"/>
</svg>
