<svg width="25" height="24" viewBox="0 0 25 24" fill="none" xmlns="http://www.w3.org/2000/svg">
<path d="M12.658 22.4329C7.135 22.4329 2.658 17.9559 2.658 12.4329C2.658 6.90986 7.135 2.43286 12.658 2.43286C18.181 2.43286 22.658 6.90986 22.658 12.4329C22.658 17.9559 18.181 22.4329 12.658 22.4329ZM12.658 20.4329C14.7797 20.4329 16.8146 19.59 18.3149 18.0897C19.8152 16.5894 20.658 14.5546 20.658 12.4329C20.658 10.3111 19.8152 8.2763 18.3149 6.77601C16.8146 5.27572 14.7797 4.43286 12.658 4.43286C10.5363 4.43286 8.50144 5.27572 7.00115 6.77601C5.50086 8.2763 4.658 10.3111 4.658 12.4329C4.658 14.5546 5.50086 16.5894 7.00115 18.0897C8.50144 19.59 10.5363 20.4329 12.658 20.4329ZM11.661 16.4329L7.418 12.1899L8.832 10.7759L11.661 13.6049L17.317 7.94786L18.732 9.36186L11.661 16.4329Z" fill="#03314B"/>
</svg>
