<svg width="24" height="24" viewBox="0 0 24 24" fill="none" xmlns="http://www.w3.org/2000/svg">
<path d="M9.973 18H11V13H13V18H14.027C14.159 16.798 14.772 15.806 15.767 14.723C15.88 14.601 16.599 13.856 16.684 13.75C17.3903 12.8676 17.833 11.8037 17.9611 10.6807C18.0892 9.55781 17.8976 8.42151 17.4082 7.40271C16.9189 6.38392 16.1517 5.52406 15.1951 4.92215C14.2385 4.32025 13.1313 4.00078 12.0011 4.00054C10.8709 4.0003 9.76354 4.31929 8.80666 4.92079C7.84978 5.52228 7.08225 6.38182 6.59246 7.4004C6.10267 8.41899 5.91054 9.55521 6.03819 10.6782C6.16584 11.8012 6.60809 12.8653 7.314 13.748C7.4 13.855 8.121 14.601 8.232 14.722C9.228 15.806 9.841 16.798 9.973 18ZM10 20V21H14V20H10ZM5.754 15C4.81219 13.8233 4.22195 12.4044 4.05126 10.9069C3.88058 9.40944 4.1364 7.89418 4.78925 6.53572C5.44211 5.17725 6.46543 4.03085 7.74135 3.22856C9.01728 2.42627 10.4939 2.00074 12.0011 2.00098C13.5083 2.00122 14.9847 2.42722 16.2604 3.22992C17.5361 4.03262 18.559 5.17935 19.2115 6.53803C19.8639 7.8967 20.1192 9.41204 19.948 10.9095C19.7769 12.4069 19.1862 13.8256 18.244 15.002C17.624 15.774 16 17 16 18.5V21C16 21.5304 15.7893 22.0391 15.4142 22.4142C15.0391 22.7893 14.5304 23 14 23H10C9.46956 23 8.96086 22.7893 8.58578 22.4142C8.21071 22.0391 8 21.5304 8 21V18.5C8 17 6.375 15.774 5.754 15Z" fill="#042330"/>
</svg>
