<svg width="19" height="20" viewBox="0 0 19 20" fill="none" xmlns="http://www.w3.org/2000/svg">
<path d="M8 0C12.068 0 15.426 3.036 15.934 6.965L18.184 10.504C18.332 10.737 18.302 11.084 17.959 11.232L16 12.07V15C16 16.105 15.105 17 14 17H12.001L12 20H3V16.306C3 15.126 2.564 14.009 1.756 13.001C0.657 11.631 0 9.892 0 8C0 3.582 3.582 0 8 0ZM8 2C4.686 2 2 4.686 2 8C2 9.385 2.468 10.693 3.316 11.75C4.41 13.114 5 14.667 5 16.306V18H10L10.002 15H14V10.752L15.55 10.088L14.007 7.663L13.95 7.221C13.566 4.251 11.024 2 8 2ZM8 5C8.552 5 9 5.448 9 6V7H10C10.552 7 11 7.448 11 8C11 8.552 10.552 9 10 9H9V10C9 10.552 8.552 11 8 11C7.448 11 7 10.552 7 10V8.999L6 9C5.448 9 5 8.552 5 8C5 7.448 5.448 7 6 7L7 6.999V6C7 5.448 7.448 5 8 5Z" fill="#042330"/>
</svg>
