<svg width="24" height="24" viewBox="0 0 24 24" fill="none" xmlns="http://www.w3.org/2000/svg">
<path d="M17.4752 16.195L21.353 20.0719L20.0719 21.353L16.195 17.4752C14.7525 18.6316 12.9583 19.2606 11.1095 19.2579C6.61151 19.2579 2.961 15.6074 2.961 11.1095C2.961 6.61151 6.61151 2.961 11.1095 2.961C15.6074 2.961 19.2579 6.61151 19.2579 11.1095C19.2606 12.9583 18.6316 14.7525 17.4752 16.195ZM15.659 15.5232C16.8081 14.3416 17.4498 12.7577 17.4472 11.1095C17.4472 7.60744 14.6106 4.77177 11.1095 4.77177C7.60744 4.77177 4.77177 7.60744 4.77177 11.1095C4.77177 14.6106 7.60744 17.4472 11.1095 17.4472C12.7577 17.4498 14.3416 16.8081 15.5232 15.659L15.659 15.5232Z" fill="#042330"/>
</svg>
