<svg width="24" height="24" viewBox="0 0 24 24" fill="none" xmlns="http://www.w3.org/2000/svg">
<path d="M19.243 4.75698C20.705 6.22298 21.255 8.24998 20.893 10.137C21.461 10.297 21.999 10.6 22.447 11.045C23.851 12.439 23.851 14.699 22.447 16.092L17 21.5L13.978 18.5L11 21.485L2.51999 12.993C0.416993 10.637 0.495993 7.01898 2.75699 4.75698C5.02199 2.49298 8.64499 2.41698 11.001 4.52898C13.35 2.41998 16.98 2.48998 19.243 4.75698ZM12.962 12.465C12.346 13.076 12.346 14.062 12.962 14.673L17 18.682L21.038 14.673C21.654 14.062 21.654 13.076 21.038 12.465C20.414 11.845 19.396 11.845 18.77 12.467L16.998 14.221L15.591 12.825L15.228 12.465C14.604 11.845 13.586 11.845 12.962 12.465ZM4.17199 6.17198C2.68199 7.66198 2.60699 10.047 3.97999 11.623L11 18.654L12.559 17.092L11.553 16.092C10.149 14.699 10.149 12.439 11.553 11.045C12.957 9.65198 15.233 9.65198 16.637 11.045L17 11.405L17.363 11.045C17.788 10.624 18.293 10.33 18.828 10.163C19.244 8.79598 18.906 7.25098 17.827 6.16998C16.327 4.66798 13.907 4.60698 12.337 6.01698L11.002 7.21498L9.66599 6.01798C8.09099 4.60598 5.67599 4.66798 4.17199 6.17198Z" fill="#042330"/>
</svg>
