<svg width="24" height="24" viewBox="0 0 24 24" fill="none" xmlns="http://www.w3.org/2000/svg">
<path d="M1.91667 14.6059C1.91611 13.6468 2.1737 12.7034 2.6651 11.8649C3.1565 11.0264 3.86548 10.3204 4.72504 9.81366C4.9519 8.13788 5.81557 6.59784 7.15442 5.48175C8.49326 4.36565 10.2155 3.75 11.9989 3.75C13.7823 3.75 15.5046 4.36565 16.8434 5.48175C18.1823 6.59784 19.0459 8.13788 19.2728 9.81366C20.339 10.4421 21.1683 11.3735 21.6424 12.475C22.1165 13.5766 22.2111 14.7918 21.9126 15.9473C21.6142 17.1028 20.9381 18.1395 19.9807 18.9092C19.0233 19.6789 17.8337 20.1424 16.5818 20.2335L7.41608 20.25C4.34008 20.0121 1.91667 17.5773 1.91667 14.6059ZM16.4424 18.5021C17.3094 18.4389 18.133 18.1179 18.7958 17.5847C19.4586 17.0516 19.9266 16.3337 20.133 15.5335C20.3393 14.7333 20.2735 13.8918 19.9448 13.1292C19.6162 12.3666 19.0416 11.7219 18.3031 11.2872L17.5634 10.8504L17.4534 10.0325C17.2821 8.77661 16.6339 7.62283 15.63 6.78677C14.6261 5.95071 13.3351 5.48959 11.9985 5.48959C10.6618 5.48959 9.37086 5.95071 8.36695 6.78677C7.36303 7.62283 6.71484 8.77661 6.54351 10.0325L6.43352 10.8504L5.69568 11.2872C4.9572 11.7219 4.38259 12.3665 4.05392 13.129C3.72525 13.8916 3.65933 14.733 3.86558 15.5331C4.07182 16.3333 4.53968 17.0512 5.20234 17.5844C5.86499 18.1176 6.68855 18.4388 7.5554 18.5021L7.71396 18.5134H16.2839L16.4424 18.5021ZM12.9155 13.3034V16.7767H11.0823V13.3034H8.33265L11.9989 8.96184L15.6652 13.3034H12.9155Z" fill="#03314B"/>
</svg>
